<svg width="6" height="54" viewBox="0 0 6 84" fill="none" xmlns="http://www.w3.org/2000/svg">
<path d="M3.5 1C3.5 0.723858 3.27614 0.5 3 0.5C2.72386 0.5 2.5 0.723858 2.5 1H3L3.5 1ZM3 83.8867L5.88675 81L3 78.1132L0.113249 81L3 83.8867ZM2.5 3.85714C2.5 4.13329 2.72386 4.35714 3 4.35714C3.27614 4.35714 3.5 4.13329 3.5 3.85714H3H2.5ZM3.5 9.57143C3.5 9.29529 3.27614 9.07143 3 9.07143C2.72386 9.07143 2.5 9.29529 2.5 9.57143H3H3.5ZM2.5 15.2857C2.5 15.5619 2.72386 15.7857 3 15.7857C3.27614 15.7857 3.5 15.5619 3.5 15.2857H3H2.5ZM3.5 21C3.5 20.7239 3.27614 20.5 3 20.5C2.72386 20.5 2.5 20.7239 2.5 21H3H3.5ZM2.5 26.7143C2.5 26.9904 2.72386 27.2143 3 27.2143C3.27614 27.2143 3.5 26.9904 3.5 26.7143H3H2.5ZM3.5 32.4286C3.5 32.1524 3.27614 31.9286 3 31.9286C2.72386 31.9286 2.5 32.1524 2.5 32.4286H3H3.5ZM2.5 38.1429C2.5 38.419 2.72386 38.6429 3 38.6429C3.27614 38.6429 3.5 38.419 3.5 38.1429H3H2.5ZM3.5 43.8571C3.5 43.581 3.27614 43.3571 3 43.3571C2.72386 43.3571 2.5 43.581 2.5 43.8571H3H3.5ZM2.5 49.5714C2.5 49.8476 2.72386 50.0714 3 50.0714C3.27614 50.0714 3.5 49.8476 3.5 49.5714H3H2.5ZM3.5 55.2857C3.5 55.0096 3.27614 54.7857 3 54.7857C2.72386 54.7857 2.5 55.0096 2.5 55.2857H3H3.5ZM2.5 61C2.5 61.2761 2.72386 61.5 3 61.5C3.27614 61.5 3.5 61.2761 3.5 61H3H2.5ZM3.5 66.7143C3.5 66.4381 3.27614 66.2143 3 66.2143C2.72386 66.2143 2.5 66.4381 2.5 66.7143H3H3.5ZM2.5 72.4286C2.5 72.7047 2.72386 72.9286 3 72.9286C3.27614 72.9286 3.5 72.7047 3.5 72.4286H3H2.5ZM3.5 78.1429C3.5 77.8667 3.27614 77.6429 3 77.6429C2.72386 77.6429 2.5 77.8667 2.5 78.1429H3H3.5ZM3 1H2.5L2.5 3.85714H3H3.5L3.5 1L3 1ZM3 9.57143H2.5L2.5 15.2857H3H3.5L3.5 9.57143H3ZM3 21H2.5L2.5 26.7143H3H3.5L3.5 21H3ZM3 32.4286H2.5L2.5 38.1429H3H3.5L3.5 32.4286H3ZM3 43.8571H2.5L2.5 49.5714H3H3.5L3.5 43.8571H3ZM3 55.2857H2.5L2.5 61H3H3.5L3.5 55.2857H3ZM3 66.7143H2.5L2.5 72.4286H3H3.5L3.5 66.7143H3ZM3 78.1429H2.5L2.5 81H3H3.5L3.5 78.1429H3ZM3.5 1C3.5 0.723858 3.27614 0.5 3 0.5C2.72386 0.5 2.5 0.723858 2.5 1H3L3.5 1ZM3 83.8867L5.88675 81L3 78.1132L0.113249 81L3 83.8867ZM2.5 3.85714C2.5 4.13329 2.72386 4.35714 3 4.35714C3.27614 4.35714 3.5 4.13329 3.5 3.85714H3H2.5ZM3.5 9.57143C3.5 9.29529 3.27614 9.07143 3 9.07143C2.72386 9.07143 2.5 9.29529 2.5 9.57143H3H3.5ZM2.5 15.2857C2.5 15.5619 2.72386 15.7857 3 15.7857C3.27614 15.7857 3.5 15.5619 3.5 15.2857H3H2.5ZM3.5 21C3.5 20.7239 3.27614 20.5 3 20.5C2.72386 20.5 2.5 20.7239 2.5 21H3H3.5ZM2.5 26.7143C2.5 26.9904 2.72386 27.2143 3 27.2143C3.27614 27.2143 3.5 26.9904 3.5 26.7143H3H2.5ZM3.5 32.4286C3.5 32.1524 3.27614 31.9286 3 31.9286C2.72386 31.9286 2.5 32.1524 2.5 32.4286H3H3.5ZM2.5 38.1429C2.5 38.419 2.72386 38.6429 3 38.6429C3.27614 38.6429 3.5 38.419 3.5 38.1429H3H2.5ZM3.5 43.8571C3.5 43.581 3.27614 43.3571 3 43.3571C2.72386 43.3571 2.5 43.581 2.5 43.8571H3H3.5ZM2.5 49.5714C2.5 49.8476 2.72386 50.0714 3 50.0714C3.27614 50.0714 3.5 49.8476 3.5 49.5714H3H2.5ZM3.5 55.2857C3.5 55.0096 3.27614 54.7857 3 54.7857C2.72386 54.7857 2.5 55.0096 2.5 55.2857H3H3.5ZM2.5 61C2.5 61.2761 2.72386 61.5 3 61.5C3.27614 61.5 3.5 61.2761 3.5 61H3H2.5ZM3.5 66.7143C3.5 66.4381 3.27614 66.2143 3 66.2143C2.72386 66.2143 2.5 66.4381 2.5 66.7143H3H3.5ZM2.5 72.4286C2.5 72.7047 2.72386 72.9286 3 72.9286C3.27614 72.9286 3.5 72.7047 3.5 72.4286H3H2.5ZM3.5 78.1429C3.5 77.8667 3.27614 77.6429 3 77.6429C2.72386 77.6429 2.5 77.8667 2.5 78.1429H3H3.5ZM3 1H2.5L2.5 3.85714H3H3.5L3.5 1L3 1ZM3 9.57143H2.5L2.5 15.2857H3H3.5L3.5 9.57143H3ZM3 21H2.5L2.5 26.7143H3H3.5L3.5 21H3ZM3 32.4286H2.5L2.5 38.1429H3H3.5L3.5 32.4286H3ZM3 43.8571H2.5L2.5 49.5714H3H3.5L3.5 43.8571H3ZM3 55.2857H2.5L2.5 61H3H3.5L3.5 55.2857H3ZM3 66.7143H2.5L2.5 72.4286H3H3.5L3.5 66.7143H3ZM3 78.1429H2.5L2.5 81H3H3.5L3.5 78.1429H3Z" fill="white"/>
</svg>
